
<svg width="200" height="200" viewBox="0 0 200 200" fill="none" xmlns="http://www.w3.org/2000/svg">
  <rect width="200" height="200" rx="8" fill="#F3F4F6"/>
  <path d="M100 70C91.716 70 85 76.716 85 85C85 93.284 91.716 100 100 100C108.284 100 115 93.284 115 85C115 76.716 108.284 70 100 70ZM100 95C94.477 95 90 90.523 90 85C90 79.477 94.477 75 100 75C105.523 75 110 79.477 110 85C110 90.523 105.523 95 100 95Z" fill="#9CA3AF"/>
  <path d="M65 65V135H135V65H65ZM130 130H70V70H130V130Z" fill="#9CA3AF"/>
  <path d="M125 115L115 105L103 117L88 102L75 115V125H125V115Z" fill="#9CA3AF"/>
</svg>
